<svg xmlns="http://www.w3.org/2000/svg" viewBox="0 0 200 260" role="img" aria-labelledby="title">
  <title id="title">Federal-style RFP layout preview</title>
  <defs>
    <linearGradient id="bgF" x1="0%" y1="0%" x2="0%" y2="100%">
      <stop offset="0%" style="stop-color:#f8fafc"/>
      <stop offset="100%" style="stop-color:#e8edf3"/>
    </linearGradient>
  </defs>
  <rect width="200" height="260" rx="12" fill="url(#bgF)" stroke="#cbd5e1" stroke-width="1"/>
  <rect x="14" y="14" width="172" height="22" rx="3" fill="#334155"/>
  <rect x="22" y="19" width="50" height="4" rx="1" fill="#f1f5f9" opacity="0.5"/>
  <rect x="14" y="46" width="132" height="7" rx="2" fill="#64748b"/>
  <rect x="14" y="59" width="172" height="3" rx="1" fill="#cbd5e1"/>
  <rect x="14" y="66" width="168" height="3" rx="1" fill="#e2e8f0"/>
  <g fill="#64748b" opacity="0.8">
    <rect x="14" y="78" width="115" height="6" rx="2"/>
    <rect x="14" y="94" width="168" height="2.5" rx="1"/>
    <rect x="14" y="100" width="168" height="2.5" rx="1"/>
    <rect x="14" y="106" width="168" height="2.5" rx="1"/>
    <rect x="14" y="118" width="108" height="6" rx="2"/>
    <rect x="14" y="134" width="168" height="2.5" rx="1"/>
    <rect x="14" y="140" width="145" height="2.5" rx="1"/>
    <rect x="14" y="152" width="100" height="6" rx="2"/>
    <rect x="14" y="168" width="168" height="2.5" rx="1"/>
    <rect x="14" y="174" width="168" height="2.5" rx="1"/>
    <rect x="14" y="186" width="125" height="6" rx="2"/>
    <rect x="14" y="202" width="168" height="2.5" rx="1"/>
    <rect x="14" y="208" width="90" height="2.5" rx="1"/>
    <rect x="14" y="220" width="95" height="6" rx="2"/>
    <rect x="14" y="236" width="168" height="2.5" rx="1"/>
    <rect x="14" y="242" width="150" height="2.5" rx="1"/>
  </g>
  <rect x="150" y="76" width="30" height="38" rx="2" fill="#e2e8f0" stroke="#94a3b8" stroke-width="0.75" opacity="0.9"/>
  <rect x="154" y="82" width="22" height="2" rx="0.5" fill="#94a3b8"/>
  <rect x="154" y="88" width="22" height="2" rx="0.5" fill="#cbd5e1"/>
  <rect x="154" y="94" width="18" height="2" rx="0.5" fill="#cbd5e1"/>
</svg>
