<svg xmlns="http://www.w3.org/2000/svg" viewBox="0 0 200 260" role="img" aria-labelledby="title">
  <title id="title">Lean commercial RFP layout preview</title>
  <defs>
    <linearGradient id="bgL" x1="0%" y1="0%" x2="0%" y2="100%">
      <stop offset="0%" style="stop-color:#fafefd"/>
      <stop offset="100%" style="stop-color:#ecfdf5"/>
    </linearGradient>
  </defs>
  <rect width="200" height="260" rx="12" fill="url(#bgL)" stroke="#a7f3d0" stroke-width="1"/>
  <rect x="14" y="14" width="172" height="18" rx="4" fill="#059669"/>
  <rect x="14" y="42" width="95" height="8" rx="3" fill="#10b981" opacity="0.85"/>
  <rect x="14" y="58" width="172" height="4" rx="2" fill="#d1fae5"/>
  <rect x="14" y="68" width="172" height="3" rx="1" fill="#a7f3d0" opacity="0.6"/>
  <rect x="14" y="76" width="140" height="3" rx="1" fill="#d1fae5"/>
  <rect x="14" y="96" width="110" height="8" rx="3" fill="#34d399" opacity="0.5"/>
  <rect x="14" y="114" width="172" height="3" rx="1" fill="#a7f3d0"/>
  <rect x="14" y="122" width="172" height="3" rx="1" fill="#d1fae5"/>
  <rect x="14" y="130" width="172" height="3" rx="1" fill="#d1fae5"/>
  <rect x="14" y="138" width="115" height="3" rx="1" fill="#6ee7b7" opacity="0.5"/>
  <rect x="14" y="158" width="105" height="8" rx="3" fill="#6ee7b7" opacity="0.65"/>
  <rect x="14" y="176" width="172" height="3" rx="1" fill="#a7f3d0"/>
  <rect x="14" y="184" width="160" height="3" rx="1" fill="#d1fae5"/>
  <rect x="14" y="192" width="100" height="3" rx="1" fill="#d1fae5"/>
  <rect x="14" y="212" width="100" height="8" rx="3" fill="#059669" opacity="0.35"/>
  <rect x="14" y="230" width="172" height="3" rx="1" fill="#a7f3d0"/>
  <rect x="14" y="238" width="130" height="3" rx="1" fill="#d1fae5"/>
</svg>
