<svg xmlns="http://www.w3.org/2000/svg" viewBox="0 0 200 260" role="img" aria-labelledby="title">
  <title id="title">Standard RFP layout preview</title>
  <defs>
    <linearGradient id="bg" x1="0%" y1="0%" x2="0%" y2="100%">
      <stop offset="0%" style="stop-color:#fafafa"/>
      <stop offset="100%" style="stop-color:#f0f0f5"/>
    </linearGradient>
  </defs>
  <rect width="200" height="260" rx="12" fill="url(#bg)" stroke="#e2e8f0" stroke-width="1"/>
  <rect x="14" y="14" width="172" height="18" rx="4" fill="#6366f1"/>
  <rect x="14" y="40" width="120" height="6" rx="2" fill="#94a3b8" opacity="0.85"/>
  <rect x="14" y="52" width="172" height="3" rx="1" fill="#cbd5e1"/>
  <rect x="14" y="60" width="160" height="3" rx="1" fill="#e2e8f0"/>
  <g fill="#94a3b8" opacity="0.75">
    <rect x="14" y="72" width="100" height="5" rx="2"/>
    <rect x="14" y="88" width="168" height="2.5" rx="1"/>
    <rect x="14" y="94" width="168" height="2.5" rx="1"/>
    <rect x="14" y="104" width="105" height="5" rx="2"/>
    <rect x="14" y="118" width="168" height="2.5" rx="1"/>
    <rect x="14" y="124" width="140" height="2.5" rx="1"/>
    <rect x="14" y="134" width="98" height="5" rx="2"/>
    <rect x="14" y="148" width="168" height="2.5" rx="1"/>
    <rect x="14" y="154" width="168" height="2.5" rx="1"/>
    <rect x="14" y="160" width="100" height="2.5" rx="1"/>
    <rect x="14" y="172" width="92" height="5" rx="2"/>
    <rect x="14" y="186" width="168" height="2.5" rx="1"/>
    <rect x="14" y="192" width="155" height="2.5" rx="1"/>
    <rect x="14" y="202" width="108" height="5" rx="2"/>
    <rect x="14" y="216" width="168" height="2.5" rx="1"/>
    <rect x="14" y="222" width="130" height="2.5" rx="1"/>
    <rect x="14" y="232" width="85" height="5" rx="2"/>
    <rect x="14" y="246" width="168" height="2.5" rx="1"/>
  </g>
</svg>
